<?xml version="1.0" standalone="no"?>
<!DOCTYPE svg PUBLIC "-//W3C//DTD SVG 20010904//EN"
 "http://www.w3.org/TR/2001/REC-SVG-20010904/DTD/svg10.dtd">
<svg version="1.0" xmlns="http://www.w3.org/2000/svg"
 width="1412.000000pt" height="1872.000000pt" viewBox="0 0 1412.000000 1872.000000"
 preserveAspectRatio="xMidYMid meet">
<metadata>
Created by potrace 1.16, written by Peter Selinger 2001-2019
</metadata>
<g transform="translate(0.000000,1872.000000) scale(0.100000,-0.100000)"
fill="#000000" stroke="none">
<path d="M2783 16757 c11 -31 -10 -57 -47 -57 -35 0 -51 12 -59 45 -4 18 -5
18 -6 -2 -1 -23 34 -63 55 -63 49 0 92 57 64 83 -10 10 -12 8 -7 -6z"/>
<path d="M2673 16605 c2 -30 3 -30 65 -33 l62 -3 -1 33 c-1 30 -2 31 -8 8 -9
-33 -39 -38 -49 -9 l-9 23 -6 -23 c-7 -30 -39 -24 -49 9 -6 23 -7 23 -5 -5z"/>
<path d="M2698 16499 c-10 -5 -18 -15 -18 -21 0 -6 8 -4 18 5 25 23 55 21 78
-4 15 -17 16 -23 6 -40 -10 -16 -10 -19 3 -19 22 0 19 46 -5 70 -22 22 -55 25
-82 9z"/>
<path d="M2671 16443 c-1 -16 5 -23 17 -23 10 0 13 3 6 8 -6 4 -14 14 -17 22
-4 10 -6 8 -6 -7z"/>
<path d="M2687 15659 c7 -7 15 -10 18 -7 3 3 -2 9 -12 12 -14 6 -15 5 -6 -5z"/>
<path d="M2730 15635 c6 -8 9 -19 5 -25 -9 -15 8 -12 31 4 18 14 18 15 -9 25
-37 14 -42 14 -27 -4z"/>
<path d="M2690 15590 c-8 -5 -10 -10 -5 -10 6 0 17 5 25 10 8 5 11 10 5 10 -5
0 -17 -5 -25 -10z"/>
<path d="M2685 15510 c-23 -25 -13 -67 21 -82 57 -26 119 37 79 82 -24 26 -76
26 -100 0z m95 -11 c9 -16 8 -26 -5 -45 -19 -29 -55 -31 -80 -4 -15 17 -16 24
-7 45 15 33 75 36 92 4z"/>
<path d="M2708 15349 c17 -5 32 -13 32 -16 0 -4 -14 -22 -32 -40 l-32 -33 65
2 c41 1 51 3 27 5 -46 5 -47 17 -6 60 l32 33 -60 -1 c-54 -1 -56 -2 -26 -10z"/>
<path d="M2672 14490 c0 -19 2 -29 5 -22 3 7 25 12 59 12 30 0 54 5 54 10 0 6
-24 10 -54 10 -34 0 -56 5 -59 13 -3 6 -5 -4 -5 -23z"/>
<path d="M2787 14382 c2 -11 -3 -26 -12 -36 -31 -31 -88 -14 -98 29 -4 19 -5
19 -6 -1 -1 -27 32 -56 64 -56 44 0 86 58 56 76 -5 4 -7 -2 -4 -12z"/>
<path d="M2685 14240 c-23 -25 -13 -67 21 -82 57 -26 119 37 79 82 -10 11 -25
20 -34 19 -11 0 -10 -3 5 -9 30 -12 37 -39 19 -66 -19 -29 -55 -31 -79 -5 -22
24 -13 59 17 71 15 6 17 9 6 9 -9 1 -24 -8 -34 -19z"/>
<path d="M2674 13336 c-9 -38 2 -46 64 -45 31 1 49 3 39 6 -9 2 -24 18 -32 34
-20 38 -62 41 -71 5z m56 -6 c0 -24 -26 -38 -42 -22 -16 16 -2 42 22 42 13 0
20 -7 20 -20z"/>
<path d="M2671 13203 l-1 -33 65 0 65 0 -1 33 c-1 29 -2 30 -8 7 -9 -34 -51
-41 -52 -8 l0 23 -10 -23 c-12 -30 -41 -25 -50 8 -6 23 -7 22 -8 -7z"/>
<path d="M2730 13085 c-16 -30 -47 -33 -53 -5 -4 17 -4 17 -3 -2 2 -33 34 -35
63 -4 29 32 41 33 53 4 10 -23 10 -23 7 2 -3 37 -48 40 -67 5z"/>
<path d="M1063 12662 c-7 -4 -13 -39 -15 -87 l-3 -80 -30 0 -30 0 -5 70 -5 70
-32 3 -32 3 -3 -73 -3 -73 -32 -3 -32 -3 -3 83 -3 83 -32 3 -33 3 0 -115 0
-116 175 0 176 0 -3 118 c-3 108 -4 117 -23 120 -11 1 -25 -1 -32 -6z"/>
<path d="M770 12240 l0 -131 33 3 c31 3 32 5 35 51 l3 47 140 0 139 0 0 30 0
29 -137 3 -138 3 -5 45 c-5 42 -7 45 -37 48 l-33 3 0 -131z"/>
<path d="M2745 12261 c3 -6 10 -9 15 -6 4 3 13 -2 20 -9 20 -25 -5 -56 -45
-56 -38 0 -62 28 -50 58 5 13 3 14 -6 5 -19 -19 -2 -59 32 -73 27 -11 33 -11
57 7 18 14 27 29 27 49 0 24 -4 30 -29 32 -18 2 -26 0 -21 -7z"/>
<path d="M2715 12103 c95 -7 97 -69 2 -76 l-52 -3 52 -2 c56 -2 83 14 83 48 0
27 -31 40 -87 38 l-48 -2 50 -3z"/>
<path d="M1010 12040 c-52 -20 -128 -49 -167 -64 -70 -26 -73 -29 -73 -59 0
-31 4 -33 78 -61 42 -16 115 -44 161 -63 103 -41 111 -41 111 -5 0 24 -6 31
-40 45 l-40 15 0 66 0 66 38 17 c36 18 55 55 35 73 -4 4 -51 -9 -103 -30z
m-30 -125 c0 -23 -5 -35 -14 -35 -18 0 -79 21 -90 31 -11 10 48 38 82 39 19 0
22 -5 22 -35z"/>
<path d="M2766 11966 c-24 -11 -26 -14 -11 -20 10 -3 18 -5 19 -4 1 2 8 11 15
21 15 20 16 20 -23 3z"/>
<path d="M2708 11943 c-30 -8 -20 -19 32 -41 44 -18 49 -19 41 -4 -5 9 -20 17
-33 17 -16 0 -23 5 -22 18 1 9 1 16 0 16 0 -1 -9 -3 -18 -6z"/>
<path d="M1057 11714 c-4 -4 -7 -40 -7 -81 l0 -73 -140 0 -140 0 0 -30 0 -30
175 0 176 0 -3 108 c-3 106 -3 107 -28 110 -14 2 -29 0 -33 -4z"/>
<path d="M825 11422 c-46 -29 -56 -57 -53 -147 l3 -80 170 0 170 0 3 32 3 32
-53 3 -53 3 -5 58 c-5 51 -10 63 -38 88 -39 35 -100 39 -147 11z m114 -66 c7
-8 11 -32 9 -53 l-3 -38 -52 -3 -53 -3 0 43 c0 24 5 49 12 56 17 17 73 15 87
-2z"/>
<path d="M774 11111 c-2 -2 -4 -19 -4 -37 0 -30 5 -36 70 -71 38 -21 70 -41
70 -45 0 -4 -31 -24 -70 -45 -67 -37 -70 -39 -70 -76 l0 -37 173 2 172 3 0 30
0 30 -105 5 -105 5 40 26 c22 14 50 31 63 38 29 15 24 23 -43 61 -30 17 -55
36 -55 41 0 5 47 9 106 9 l105 0 -3 31 -3 30 -168 2 c-93 1 -171 0 -173 -2z"/>
<path d="M2787 11081 c-4 -16 -16 -21 -58 -24 l-54 -3 63 -2 c60 -2 62 -1 62
23 0 30 -6 32 -13 6z"/>
<path d="M2715 10973 c91 -7 97 -69 7 -76 l-47 -3 47 -2 c50 -2 78 15 78 48 0
27 -31 40 -87 38 l-48 -2 50 -3z"/>
<path d="M2728 10821 c29 -4 58 -13 63 -21 8 -12 9 -11 7 5 -3 17 -11 20 -63
21 l-60 2 53 -7z"/>
<path d="M770 10616 l0 -116 175 0 175 0 0 115 0 115 -35 0 -35 0 0 -86 0 -85
-32 3 -33 3 -5 70 -5 70 -32 3 -32 3 -3 -73 -3 -73 -32 -3 -32 -3 -3 83 -3 83
-32 3 -33 3 0 -115z"/>
<path d="M770 10310 l0 -131 33 3 c31 3 32 5 35 51 l3 47 140 0 139 0 0 30 0
29 -137 3 -138 3 -5 45 c-5 42 -7 45 -37 48 l-33 3 0 -131z"/>
<path d="M830 9990 c-45 -18 -60 -58 -60 -159 l0 -91 173 2 172 3 0 30 c0 29
-2 30 -52 33 -50 3 -53 4 -53 30 0 23 10 34 55 61 49 30 55 37 55 67 0 19 -4
34 -8 34 -4 0 -29 -13 -55 -30 -26 -16 -51 -30 -54 -30 -4 0 -19 12 -34 26
-31 29 -96 40 -139 24z m98 -72 c7 -7 12 -34 12 -60 l0 -48 -50 0 -50 0 0 48
c0 54 12 72 50 72 14 0 31 -5 38 -12z"/>
<path d="M2704 9981 c41 -8 42 -24 6 -55 l-32 -26 59 2 c35 1 45 3 26 5 -19 3
-33 10 -33 18 0 7 15 25 33 39 l32 26 -60 -1 c-43 -1 -52 -3 -31 -8z"/>
<path d="M2705 9823 c59 -7 73 -13 78 -33 7 -26 -10 -38 -63 -43 l-45 -4 51
-1 c52 -2 74 10 74 39 0 27 -40 49 -85 48 -32 -2 -34 -3 -10 -6z"/>
<path d="M772 9553 l3 -118 170 0 170 0 3 118 3 117 -36 0 -35 0 0 -86 0 -85
-32 3 -33 3 -5 70 -5 70 -32 3 -32 3 -3 -73 -3 -73 -32 -3 -32 -3 -3 83 -3 83
-33 3 -33 3 3 -118z"/>
<path d="M2725 9663 c32 -2 55 -10 63 -21 13 -16 14 -15 10 3 -3 17 -11 20
-63 21 -52 1 -54 0 -10 -3z"/>
<path d="M1017 9319 c-49 -32 -93 -59 -99 -59 -5 0 -38 25 -73 55 -34 30 -65
55 -69 55 -3 0 -6 -15 -6 -34 0 -31 8 -41 70 -92 39 -32 70 -62 70 -66 0 -4
-32 -8 -71 -8 l-70 0 3 -32 3 -33 170 0 170 0 3 33 3 32 -54 0 c-38 0 -62 6
-78 19 l-23 18 77 52 c71 48 77 54 77 86 0 19 -3 35 -7 34 -5 0 -48 -27 -96
-60z"/>
<path d="M788 9012 c-30 -50 -33 -105 -9 -154 32 -67 79 -93 166 -93 59 0 77
4 107 25 50 34 72 75 72 135 0 37 -6 60 -23 83 -26 37 -41 40 -65 13 -15 -16
-15 -20 -2 -31 9 -6 18 -26 21 -44 14 -74 -40 -122 -129 -113 -83 8 -118 70
-80 142 14 28 14 31 -6 47 -29 24 -33 23 -52 -10z"/>
<path d="M2695 8861 c19 -22 19 -23 0 -37 -23 -17 -12 -18 18 -2 12 6 38 15
57 19 l35 7 -40 1 c-22 0 -52 9 -65 18 l-25 17 20 -23z"/>
<path d="M2732 8746 l-54 -23 51 -21 c59 -26 62 -26 55 -7 -4 9 -14 13 -23 11
-21 -7 -46 9 -37 23 4 6 18 11 31 11 12 0 25 7 29 15 3 8 4 15 3 15 -1 -1 -26
-11 -55 -24z"/>
<path d="M1020 8682 c-36 -15 -107 -43 -157 -62 -91 -33 -93 -35 -93 -66 0
-31 3 -33 73 -60 39 -15 116 -44 169 -65 53 -20 99 -34 102 -31 3 3 6 16 6 28
0 17 -11 29 -40 44 l-40 20 0 65 0 65 40 16 c34 14 40 21 40 45 0 36 -14 36
-100 1z m-45 -132 c0 -32 -2 -35 -25 -31 -33 4 -84 31 -75 39 11 11 69 31 85
29 10 -2 15 -14 15 -37z"/>
<path d="M2711 8613 c-23 -5 -23 -5 8 -24 38 -23 36 -38 -5 -58 l-29 -15 25
-7 c28 -8 93 -10 70 -2 -8 2 -22 7 -30 10 -12 3 -10 8 9 24 l23 19 -23 19
c-19 16 -21 21 -9 24 8 3 22 8 30 10 18 7 -36 6 -69 0z"/>
<path d="M807 8316 c-33 -31 -39 -53 -35 -151 l3 -80 170 0 170 0 3 33 3 32
-55 0 c-55 0 -56 1 -56 29 0 23 9 34 53 62 43 28 53 40 55 67 2 17 -1 32 -7
32 -6 0 -34 -14 -62 -32 -52 -31 -52 -31 -68 -11 -41 50 -130 60 -174 19z
m115 -53 c13 -11 18 -30 18 -65 l0 -48 -50 0 -50 0 0 55 c0 41 4 56 18 64 25
15 43 13 64 -6z"/>
<path d="M770 7900 l0 -131 33 3 c30 3 32 6 37 48 l5 45 138 3 137 3 0 29 0
30 -139 0 -140 0 -3 48 c-3 45 -4 47 -35 50 l-33 3 0 -131z"/>
<path d="M2685 7730 c-3 -6 5 -10 18 -10 14 0 28 -7 31 -16 3 -8 11 -12 16 -9
6 4 1 14 -14 26 -27 21 -42 24 -51 9z"/>
<path d="M2780 7720 c-9 -6 -10 -10 -3 -10 6 0 15 5 18 10 8 12 4 12 -15 0z"/>
<path d="M2671 7688 c-1 -27 14 -46 27 -33 3 3 1 9 -5 13 -6 4 -13 16 -16 27
-4 16 -5 14 -6 -7z"/>
<path d="M2723 7673 c-7 -2 -13 -9 -13 -15 0 -12 41 -6 41 7 1 12 -11 15 -28
8z"/>
<path d="M770 7470 l0 -131 33 3 c31 3 32 5 35 51 l3 47 140 0 139 0 0 30 0
30 -139 0 -140 0 -3 48 c-3 45 -4 47 -35 50 l-33 3 0 -131z"/>
<path d="M2682 7588 c-6 -6 -12 -22 -12 -35 0 -22 3 -23 68 -22 37 1 56 4 42
6 -14 3 -28 10 -32 17 -6 8 -10 7 -17 -2 -12 -20 -46 -10 -46 13 0 23 33 33
47 13 8 -10 9 -10 5 2 -5 19 -39 24 -55 8z"/>
<path d="M2761 7456 c-21 -12 -21 -14 -6 -20 10 -3 18 -5 19 -4 1 2 8 11 15
21 16 20 5 21 -28 3z"/>
<path d="M2708 7433 c-37 -9 -22 -20 82 -61 10 -4 9 0 -4 13 -10 11 -28 19
-40 20 -14 0 -21 6 -20 18 1 9 1 16 0 16 0 -1 -9 -3 -18 -6z"/>
<path d="M777 7274 c-4 -4 -7 -20 -7 -36 l0 -28 173 2 172 3 0 30 0 30 -166 3
c-91 1 -168 -1 -172 -4z"/>
<path d="M990 7139 c-14 -5 -31 -17 -38 -26 -11 -16 -14 -16 -41 0 -43 25 -78
21 -112 -12 -28 -28 -29 -33 -29 -125 l0 -96 173 2 172 3 3 90 c2 70 -1 96
-15 122 -22 42 -69 59 -113 42z m49 -73 c7 -8 11 -37 9 -68 l-3 -53 -35 0 -35
0 -3 53 c-3 57 8 82 38 82 10 0 23 -6 29 -14z m-133 -30 c3 -13 4 -38 2 -57
-3 -30 -6 -34 -33 -34 -28 0 -30 3 -33 44 -4 57 2 71 32 71 19 0 27 -7 32 -24z"/>
<path d="M980 6774 c-224 -87 -205 -77 -205 -113 l0 -33 155 -59 c210 -80 190
-76 190 -39 0 28 -5 34 -40 47 l-41 16 3 70 3 70 35 12 c29 10 36 17 38 43 2
22 -1 32 -10 32 -7 -1 -65 -21 -128 -46z m-2 -108 c2 -16 0 -32 -5 -37 -10
-10 -103 20 -103 32 0 10 72 39 90 36 8 -1 16 -15 18 -31z"/>
<path d="M2682 6618 c-7 -7 -12 -25 -12 -40 l0 -28 68 1 c37 1 56 4 42 6 -14
3 -31 10 -37 15 -9 7 -13 7 -13 -1 0 -7 -10 -11 -22 -9 -33 4 -37 45 -6 57 14
6 17 10 8 10 -9 1 -21 -4 -28 -11z"/>
<path d="M2730 6604 c0 -16 9 -18 28 -5 10 6 9 10 -7 14 -14 3 -21 0 -21 -9z"/>
<path d="M2721 6468 l-45 -20 35 -15 c74 -32 78 -33 72 -18 -3 8 -16 15 -28
15 -13 0 -27 5 -31 11 -9 14 16 30 37 23 9 -2 19 2 23 11 7 20 -9 18 -63 -7z"/>
<path d="M770 6410 c0 -29 0 -29 68 -32 l67 -3 0 -65 0 -65 -67 -3 c-68 -3
-68 -3 -68 -32 l0 -30 175 0 175 0 0 30 c0 29 0 29 -67 32 l-68 3 0 65 0 65
68 3 c67 3 67 3 67 32 l0 30 -175 0 -175 0 0 -30z"/>
<path d="M2696 6332 c-2 -4 9 -14 25 -21 37 -16 37 -36 0 -52 -33 -15 -24 -29
19 -29 20 0 22 2 10 10 -13 8 -12 11 5 24 11 9 25 16 30 16 6 0 -2 8 -17 16
-30 16 -35 29 -15 37 6 3 -2 6 -20 6 -17 1 -34 -3 -37 -7z"/>
<path d="M2778 6223 c7 -3 16 -2 19 1 4 3 -2 6 -13 5 -11 0 -14 -3 -6 -6z"/>
<path d="M2755 5450 c-3 -5 3 -10 15 -10 29 0 23 -34 -7 -38 -16 -2 -23 3 -26
20 l-4 23 -2 -23 c-1 -18 -6 -23 -23 -20 -30 4 -34 26 -6 38 l23 10 -25 -3
c-19 -1 -26 -8 -28 -29 l-3 -28 65 0 c62 0 66 1 66 23 0 35 -31 60 -45 37z"/>
<path d="M2673 5295 c2 -30 3 -30 65 -33 l62 -3 -1 33 c-1 30 -2 31 -8 8 -9
-33 -39 -38 -49 -9 l-9 23 -6 -23 c-7 -30 -39 -24 -49 9 -6 23 -7 23 -5 -5z"/>
<path d="M2671 5173 l-1 -33 68 1 c45 1 57 3 38 8 -16 3 -33 15 -37 26 -7 19
-8 18 -8 -3 -1 -33 -43 -26 -52 8 -6 23 -7 22 -8 -7z"/>
<path d="M2700 4333 c44 -8 46 -21 10 -58 l-34 -35 65 2 c38 1 50 3 29 5 -53
7 -55 17 -13 57 l38 36 -60 -1 c-33 -1 -49 -4 -35 -6z"/>
<path d="M2752 4171 c-11 -7 -11 -9 1 -14 9 -3 21 1 27 9 10 11 10 14 -1 14
-8 0 -20 -4 -27 -9z"/>
<path d="M2700 4150 c-13 -9 -13 -11 0 -20 22 -14 26 -12 26 10 0 22 -4 24
-26 10z"/>
<path d="M2752 4121 c-9 -5 -5 -11 14 -20 33 -15 40 -10 16 12 -10 9 -23 13
-30 8z"/>
<path d="M2728 4031 c30 -4 57 -13 62 -21 6 -8 10 -10 10 -5 0 23 -26 35 -74
34 l-51 -2 53 -6z"/>
<path d="M2695 1991 c-19 -8 -18 -9 5 -12 20 -3 25 -10 25 -34 0 -23 -6 -31
-25 -36 -16 -4 -1 -7 40 -7 44 0 55 2 35 7 -25 5 -31 12 -33 39 -3 25 1 32 15
33 16 0 16 1 -2 9 -25 11 -35 11 -60 1z"/>
<path d="M2670 1809 c0 -28 2 -30 18 -18 9 7 18 14 19 14 1 1 -6 9 -17 18 -19
16 -20 16 -20 -14z"/>
<path d="M3370 1810 c0 -13 5 -18 15 -14 8 4 15 10 15 14 0 4 -7 10 -15 14
-10 4 -15 -1 -15 -14z"/>
<path d="M2704 1711 c39 -8 43 -24 11 -49 -14 -11 -25 -23 -25 -26 0 -3 24 -5
53 -4 35 1 42 2 20 5 -19 3 -33 10 -33 18 0 7 15 25 33 39 l32 26 -60 -1 c-43
-1 -52 -3 -31 -8z"/>
<path d="M3398 1713 c17 -2 47 -2 65 0 17 2 3 4 -33 4 -36 0 -50 -2 -32 -4z"/>
<path d="M3438 1636 c-10 -7 -18 -17 -18 -22 0 -4 5 -3 12 4 19 19 48 15 48
-8 0 -17 -6 -19 -55 -17 -35 2 -55 -1 -55 -8 0 -7 24 -13 60 -14 l60 -2 0 34
c0 23 -6 37 -16 41 -19 7 -15 8 -36 -8z"/>
<path d="M3370 1631 c0 -5 9 -7 20 -4 11 3 20 7 20 9 0 2 -9 4 -20 4 -11 0
-20 -4 -20 -9z"/>
<path d="M2690 1550 c-11 -11 -20 -29 -20 -39 0 -20 44 -61 65 -61 21 0 65 41
65 61 0 27 -35 59 -65 59 -14 0 -34 -9 -45 -20z m85 -14 c29 -43 -18 -91 -64
-67 -29 16 -36 49 -15 72 24 26 60 24 79 -5z"/>
<path d="M3425 1496 c-43 -20 -47 -25 -30 -31 11 -5 23 -10 27 -12 3 -1 4 7 1
18 -5 19 -3 21 19 17 17 -3 29 1 37 14 14 23 8 22 -54 -6z"/>
<path d="M3451 1456 c-9 -11 -7 -15 11 -19 28 -8 29 -6 13 16 -10 14 -14 15
-24 3z"/>
<path d="M2768 1393 c6 -2 18 -2 25 0 6 3 1 5 -13 5 -14 0 -19 -2 -12 -5z"/>
<path d="M2690 1382 c0 -4 14 -13 30 -19 38 -14 38 -37 0 -53 -37 -15 -30 -30
13 -29 18 0 26 3 20 6 -21 8 -15 21 14 37 l28 14 -28 13 c-16 7 -26 18 -23 26
4 9 -4 13 -24 13 -17 0 -30 -4 -30 -8z"/>
<path d="M3393 1363 c25 -4 28 -8 25 -36 -2 -23 -9 -33 -28 -38 -16 -4 -1 -7
40 -7 44 0 55 2 35 7 -25 5 -30 11 -30 36 0 25 5 31 30 36 20 4 8 7 -35 6 -36
0 -52 -2 -37 -4z"/>
</g>
</svg>
